<?xml version="1.0" standalone="no"?><!DOCTYPE svg PUBLIC "-//W3C//DTD SVG 1.1//EN" "http://www.w3.org/Graphics/SVG/1.1/DTD/svg11.dtd"><svg t="1570935342289" class="icon" viewBox="0 0 1024 1024" version="1.1" xmlns="http://www.w3.org/2000/svg" p-id="2746" width="22" height="22" xmlns:xlink="http://www.w3.org/1999/xlink"><defs><style type="text/css"></style></defs><path d="M208.303158 175.157895h814.241684l-97.091368 368.64-643.287579 33.226105 20.237473 110.133895H926.72v80.842105H235.061895l-118.837895-646.736842H0v-80.842105h183.538526l24.791579 134.736842z m14.874947 80.842105l44.247579 240.828632L862.315789 466.108632 917.665684 256H223.178105z m202.374737 733.696a80.842105 80.842105 0 1 1 0-161.684211 80.842105 80.842105 0 0 1 0 161.684211z m323.368421 0a80.842105 80.842105 0 1 1 0-161.684211 80.842105 80.842105 0 0 1 0 161.684211z" fill="#d81e06" p-id="2747"></path></svg>